STARTFONT 2.1
FONT --Palmos30~En-Regular-R-Normal--11-110-72-72-P-61-FONTSPECIFIC-0
SIZE 11 72 72
FONTBOUNDINGBOX 17 11 -1 -2
METRICSSET 2
STARTPROPERTIES 19
FONT_ASCENT 9
FONT_DESCENT 2
PIXEL_SIZE 11
RESOLUTION_X 72
RESOLUTION_Y 72
POINT_SIZE 110
FACE_NAME "Palm OS Bold"
FOUNDRY ""
FAMILY_NAME "Palmos30-En"
WEIGHT_NAME "Regular"
RELATIVE_WEIGHT 50
SLANT "R"
SPACING "P"
SETWIDTH_NAME "Normal"
RELATIVE_SETWIDTH 50
ADD_STYLE_NAME ""
AVERAGE_WIDTH 61
CHARSET_REGISTRY "FONTSPECIFIC"
CHARSET_ENCODING "0"
ENDPROPERTIES
CHARS 224
STARTCHAR char09
ENCODING 9
SWIDTH 182 0
DWIDTH 2 0
BBX 0 0 2 9
VVECTOR 3 9
SWIDTH1 0 -1000
DWIDTH1 0 -11
BITMAP 
ENDCHAR
STARTCHAR char20
ENCODING 32
SWIDTH 182 0
DWIDTH 2 0
BBX 0 0 2 9
VVECTOR 3 9
SWIDTH1 0 -1000
DWIDTH1 0 -11
BITMAP 
ENDCHAR
STARTCHAR char21
ENCODING 33
SWIDTH 273 0
DWIDTH 3 0
BBX 2 7 0 0
VVECTOR 1 9
SWIDTH1 0 -1000
DWIDTH1 0 -11
BITMAP 
C0
C0
C0
C0
C0
00
C0
ENDCHAR
STARTCHAR char22
ENCODING 34
SWIDTH 545 0
DWIDTH 6 0
BBX 5 3 0 5
VVECTOR 2 9
SWIDTH1 0 -1000
DWIDTH1 0 -11
BITMAP 
D8
D8
48
ENDCHAR
STARTCHAR char23
ENCODING 35
SWIDTH 909 0
DWIDTH 10 0
BBX 9 7 0 0
VVECTOR 4 9
SWIDTH1 0 -1000
DWIDTH1 0 -11
BITMAP 
1B00
1B00
7F80
3600
FF00
6C00
6C00
ENDCHAR
STARTCHAR char24
ENCODING 36
SWIDTH 545 0
DWIDTH 6 0
BBX 5 9 0 -1
VVECTOR 2 9
SWIDTH1 0 -1000
DWIDTH1 0 -11
BITMAP 
20
78
A0
E0
70
38
28
F0
20
ENDCHAR
STARTCHAR char25
ENCODING 37
SWIDTH 1182 0
DWIDTH 13 0
BBX 12 7 0 0
VVECTOR 6 9
SWIDTH1 0 -1000
DWIDTH1 0 -11
BITMAP 
70C0
D980
DB00
76E0
0DB0
19B0
30E0
ENDCHAR
STARTCHAR char26
ENCODING 38
SWIDTH 818 0
DWIDTH 9 0
BBX 8 7 0 0
VVECTOR 4 9
SWIDTH1 0 -1000
DWIDTH1 0 -11
BITMAP 
38
6C
38
7B
CE
CE
7B
ENDCHAR
STARTCHAR char27
ENCODING 39
SWIDTH 273 0
DWIDTH 3 0
BBX 2 3 0 5
VVECTOR 1 9
SWIDTH1 0 -1000
DWIDTH1 0 -11
BITMAP 
C0
C0
40
ENDCHAR
STARTCHAR char28
ENCODING 40
SWIDTH 455 0
DWIDTH 5 0
BBX 4 9 0 -1
VVECTOR 2 9
SWIDTH1 0 -1000
DWIDTH1 0 -11
BITMAP 
30
60
40
C0
C0
C0
40
60
30
ENDCHAR
STARTCHAR char29
ENCODING 41
SWIDTH 455 0
DWIDTH 5 0
BBX 4 9 0 -1
VVECTOR 2 9
SWIDTH1 0 -1000
DWIDTH1 0 -11
BITMAP 
C0
60
20
30
30
30
20
60
C0
ENDCHAR
STARTCHAR char2A
ENCODING 42
SWIDTH 545 0
DWIDTH 6 0
BBX 5 5 0 3
VVECTOR 2 9
SWIDTH1 0 -1000
DWIDTH1 0 -11
BITMAP 
50
20
F8
20
50
ENDCHAR
STARTCHAR char2B
ENCODING 43
SWIDTH 545 0
DWIDTH 6 0
BBX 5 5 0 1
VVECTOR 2 9
SWIDTH1 0 -1000
DWIDTH1 0 -11
BITMAP 
20
20
F8
20
20
ENDCHAR
STARTCHAR char2C
ENCODING 44
SWIDTH 273 0
DWIDTH 3 0
BBX 2 3 0 -2
VVECTOR 1 9
SWIDTH1 0 -1000
DWIDTH1 0 -11
BITMAP 
C0
40
80
ENDCHAR
STARTCHAR char2D
ENCODING 45
SWIDTH 455 0
DWIDTH 5 0
BBX 4 1 0 3
VVECTOR 2 9
SWIDTH1 0 -1000
DWIDTH1 0 -11
BITMAP 
F0
ENDCHAR
STARTCHAR char2E
ENCODING 46
SWIDTH 273 0
DWIDTH 3 0
BBX 2 1 0 0
VVECTOR 1 9
SWIDTH1 0 -1000
DWIDTH1 0 -11
BITMAP 
C0
ENDCHAR
STARTCHAR char2F
ENCODING 47
SWIDTH 545 0
DWIDTH 6 0
BBX 5 7 0 0
VVECTOR 2 9
SWIDTH1 0 -1000
DWIDTH1 0 -11
BITMAP 
18
18
30
60
60
C0
C0
ENDCHAR
STARTCHAR char30
ENCODING 48
SWIDTH 545 0
DWIDTH 6 0
BBX 5 7 0 0
VVECTOR 2 9
SWIDTH1 0 -1000
DWIDTH1 0 -11
BITMAP 
70
D8
D8
D8
D8
D8
70
ENDCHAR
STARTCHAR char31
ENCODING 49
SWIDTH 545 0
DWIDTH 6 0
BBX 3 7 1 0
VVECTOR 2 9
SWIDTH1 0 -1000
DWIDTH1 0 -11
BITMAP 
60
E0
60
60
60
60
60
ENDCHAR
STARTCHAR char32
ENCODING 50
SWIDTH 545 0
DWIDTH 6 0
BBX 5 7 0 0
VVECTOR 2 9
SWIDTH1 0 -1000
DWIDTH1 0 -11
BITMAP 
70
D8
18
30
60
C0
F8
ENDCHAR
STARTCHAR char33
ENCODING 51
SWIDTH 545 0
DWIDTH 6 0
BBX 5 7 0 0
VVECTOR 2 9
SWIDTH1 0 -1000
DWIDTH1 0 -11
BITMAP 
70
D8
18
30
18
D8
70
ENDCHAR
STARTCHAR char34
ENCODING 52
SWIDTH 545 0
DWIDTH 6 0
BBX 5 7 0 0
VVECTOR 2 9
SWIDTH1 0 -1000
DWIDTH1 0 -11
BITMAP 
18
38
78
D8
F8
18
18
ENDCHAR
STARTCHAR char35
ENCODING 53
SWIDTH 545 0
DWIDTH 6 0
BBX 5 7 0 0
VVECTOR 2 9
SWIDTH1 0 -1000
DWIDTH1 0 -11
BITMAP 
F8
C0
C0
F0
18
18
F0
ENDCHAR
STARTCHAR char36
ENCODING 54
SWIDTH 545 0
DWIDTH 6 0
BBX 5 7 0 0
VVECTOR 2 9
SWIDTH1 0 -1000
DWIDTH1 0 -11
BITMAP 
30
60
C0
F0
D8
D8
70
ENDCHAR
STARTCHAR char37
ENCODING 55
SWIDTH 545 0
DWIDTH 6 0
BBX 5 7 0 0
VVECTOR 2 9
SWIDTH1 0 -1000
DWIDTH1 0 -11
BITMAP 
F8
18
30
30
60
60
60
ENDCHAR
STARTCHAR char38
ENCODING 56
SWIDTH 545 0
DWIDTH 6 0
BBX 5 7 0 0
VVECTOR 2 9
SWIDTH1 0 -1000
DWIDTH1 0 -11
BITMAP 
70
D8
D8
70
D8
D8
70
ENDCHAR
STARTCHAR char39
ENCODING 57
SWIDTH 545 0
DWIDTH 6 0
BBX 5 7 0 0
VVECTOR 2 9
SWIDTH1 0 -1000
DWIDTH1 0 -11
BITMAP 
70
D8
D8
78
18
30
60
ENDCHAR
STARTCHAR char3A
ENCODING 58
SWIDTH 273 0
DWIDTH 3 0
BBX 2 5 0 0
VVECTOR 1 9
SWIDTH1 0 -1000
DWIDTH1 0 -11
BITMAP 
C0
00
00
00
C0
ENDCHAR
STARTCHAR char3B
ENCODING 59
SWIDTH 273 0
DWIDTH 3 0
BBX 2 7 0 -2
VVECTOR 1 9
SWIDTH1 0 -1000
DWIDTH1 0 -11
BITMAP 
C0
00
00
00
C0
40
80
ENDCHAR
STARTCHAR char3C
ENCODING 60
SWIDTH 545 0
DWIDTH 6 0
BBX 5 5 0 1
VVECTOR 2 9
SWIDTH1 0 -1000
DWIDTH1 0 -11
BITMAP 
08
30
E0
30
08
ENDCHAR
STARTCHAR char3D
ENCODING 61
SWIDTH 545 0
DWIDTH 6 0
BBX 5 3 0 2
VVECTOR 2 9
SWIDTH1 0 -1000
DWIDTH1 0 -11
BITMAP 
F8
00
F8
ENDCHAR
STARTCHAR char3E
ENCODING 62
SWIDTH 545 0
DWIDTH 6 0
BBX 5 5 0 1
VVECTOR 2 9
SWIDTH1 0 -1000
DWIDTH1 0 -11
BITMAP 
80
60
18
60
80
ENDCHAR
STARTCHAR char3F
ENCODING 63
SWIDTH 545 0
DWIDTH 6 0
BBX 5 7 1 0
VVECTOR 4 9
SWIDTH1 0 -1000
DWIDTH1 0 -11
BITMAP 
F0
18
30
60
60
00
60
ENDCHAR
STARTCHAR char40
ENCODING 64
SWIDTH 909 0
DWIDTH 10 0
BBX 9 7 0 -1
VVECTOR 4 9
SWIDTH1 0 -1000
DWIDTH1 0 -11
BITMAP 
3E00
6300
CD80
D580
CB00
6000
3C00
ENDCHAR
STARTCHAR char41
ENCODING 65
SWIDTH 636 0
DWIDTH 7 0
BBX 6 7 0 0
VVECTOR 3 9
SWIDTH1 0 -1000
DWIDTH1 0 -11
BITMAP 
78
CC
CC
FC
CC
CC
CC
ENDCHAR
STARTCHAR char42
ENCODING 66
SWIDTH 636 0
DWIDTH 7 0
BBX 6 7 0 0
VVECTOR 3 9
SWIDTH1 0 -1000
DWIDTH1 0 -11
BITMAP 
F8
CC
CC
F8
CC
CC
F8
ENDCHAR
STARTCHAR char43
ENCODING 67
SWIDTH 545 0
DWIDTH 6 0
BBX 5 7 0 0
VVECTOR 2 9
SWIDTH1 0 -1000
DWIDTH1 0 -11
BITMAP 
38
60
C0
C0
C0
60
38
ENDCHAR
STARTCHAR char44
ENCODING 68
SWIDTH 636 0
DWIDTH 7 0
BBX 6 7 0 0
VVECTOR 3 9
SWIDTH1 0 -1000
DWIDTH1 0 -11
BITMAP 
F0
D8
CC
CC
CC
D8
F0
ENDCHAR
STARTCHAR char45
ENCODING 69
SWIDTH 455 0
DWIDTH 5 0
BBX 4 7 0 0
VVECTOR 2 9
SWIDTH1 0 -1000
DWIDTH1 0 -11
BITMAP 
F0
C0
C0
F0
C0
C0
F0
ENDCHAR
STARTCHAR char46
ENCODING 70
SWIDTH 455 0
DWIDTH 5 0
BBX 4 7 0 0
VVECTOR 2 9
SWIDTH1 0 -1000
DWIDTH1 0 -11
BITMAP 
F0
C0
C0
F0
C0
C0
C0
ENDCHAR
STARTCHAR char47
ENCODING 71
SWIDTH 727 0
DWIDTH 8 0
BBX 7 7 0 0
VVECTOR 3 9
SWIDTH1 0 -1000
DWIDTH1 0 -11
BITMAP 
3C
60
C0
CE
C6
66
3C
ENDCHAR
STARTCHAR char48
ENCODING 72
SWIDTH 727 0
DWIDTH 8 0
BBX 7 7 0 0
VVECTOR 3 9
SWIDTH1 0 -1000
DWIDTH1 0 -11
BITMAP 
C6
C6
C6
FE
C6
C6
C6
ENDCHAR
STARTCHAR char49
ENCODING 73
SWIDTH 273 0
DWIDTH 3 0
BBX 2 7 0 0
VVECTOR 1 9
SWIDTH1 0 -1000
DWIDTH1 0 -11
BITMAP 
C0
C0
C0
C0
C0
C0
C0
ENDCHAR
STARTCHAR char4A
ENCODING 74
SWIDTH 455 0
DWIDTH 5 0
BBX 4 7 0 0
VVECTOR 2 9
SWIDTH1 0 -1000
DWIDTH1 0 -11
BITMAP 
30
30
30
30
30
30
E0
ENDCHAR
STARTCHAR char4B
ENCODING 75
SWIDTH 636 0
DWIDTH 7 0
BBX 6 7 0 0
VVECTOR 3 9
SWIDTH1 0 -1000
DWIDTH1 0 -11
BITMAP 
CC
D8
F0
E0
F0
D8
CC
ENDCHAR
STARTCHAR char4C
ENCODING 76
SWIDTH 545 0
DWIDTH 6 0
BBX 5 7 0 0
VVECTOR 2 9
SWIDTH1 0 -1000
DWIDTH1 0 -11
BITMAP 
C0
C0
C0
C0
C0
C0
F8
ENDCHAR
STARTCHAR char4D
ENCODING 77
SWIDTH 909 0
DWIDTH 10 0
BBX 9 7 0 0
VVECTOR 4 9
SWIDTH1 0 -1000
DWIDTH1 0 -11
BITMAP 
E380
E380
B580
B580
9980
9980
9980
ENDCHAR
STARTCHAR char4E
ENCODING 78
SWIDTH 636 0
DWIDTH 7 0
BBX 6 7 0 0
VVECTOR 3 9
SWIDTH1 0 -1000
DWIDTH1 0 -11
BITMAP 
C4
E4
F4
BC
9C
8C
84
ENDCHAR
STARTCHAR char4F
ENCODING 79
SWIDTH 727 0
DWIDTH 8 0
BBX 7 7 0 0
VVECTOR 3 9
SWIDTH1 0 -1000
DWIDTH1 0 -11
BITMAP 
38
6C
C6
C6
C6
6C
38
ENDCHAR
STARTCHAR char50
ENCODING 80
SWIDTH 636 0
DWIDTH 7 0
BBX 6 7 0 0
VVECTOR 3 9
SWIDTH1 0 -1000
DWIDTH1 0 -11
BITMAP 
F8
CC
CC
F8
C0
C0
C0
ENDCHAR
STARTCHAR char51
ENCODING 81
SWIDTH 727 0
DWIDTH 8 0
BBX 7 8 0 -1
VVECTOR 3 9
SWIDTH1 0 -1000
DWIDTH1 0 -11
BITMAP 
38
6C
C6
C6
C6
6C
38
0E
ENDCHAR
STARTCHAR char52
ENCODING 82
SWIDTH 727 0
DWIDTH 8 0
BBX 7 7 0 0
VVECTOR 3 9
SWIDTH1 0 -1000
DWIDTH1 0 -11
BITMAP 
F8
CC
CC
F8
D8
CC
CE
ENDCHAR
STARTCHAR char53
ENCODING 83
SWIDTH 545 0
DWIDTH 6 0
BBX 5 7 0 0
VVECTOR 2 9
SWIDTH1 0 -1000
DWIDTH1 0 -11
BITMAP 
78
C0
E0
70
38
18
F0
ENDCHAR
STARTCHAR char54
ENCODING 84
SWIDTH 636 0
DWIDTH 7 0
BBX 6 7 0 0
VVECTOR 3 9
SWIDTH1 0 -1000
DWIDTH1 0 -11
BITMAP 
FC
30
30
30
30
30
30
ENDCHAR
STARTCHAR char55
ENCODING 85
SWIDTH 636 0
DWIDTH 7 0
BBX 6 7 0 0
VVECTOR 3 9
SWIDTH1 0 -1000
DWIDTH1 0 -11
BITMAP 
C4
C4
C4
C4
C4
EC
78
ENDCHAR
STARTCHAR char56
ENCODING 86
SWIDTH 727 0
DWIDTH 8 0
BBX 7 7 0 0
VVECTOR 3 9
SWIDTH1 0 -1000
DWIDTH1 0 -11
BITMAP 
C6
C6
64
6C
68
38
38
ENDCHAR
STARTCHAR char57
ENCODING 87
SWIDTH 1000 0
DWIDTH 11 0
BBX 10 7 0 0
VVECTOR 5 9
SWIDTH1 0 -1000
DWIDTH1 0 -11
BITMAP 
CCC0
CC80
6D80
6D80
7700
3300
3300
ENDCHAR
STARTCHAR char58
ENCODING 88
SWIDTH 636 0
DWIDTH 7 0
BBX 6 7 0 0
VVECTOR 3 9
SWIDTH1 0 -1000
DWIDTH1 0 -11
BITMAP 
C4
EC
78
30
78
DC
8C
ENDCHAR
STARTCHAR char59
ENCODING 89
SWIDTH 636 0
DWIDTH 7 0
BBX 6 7 0 0
VVECTOR 3 9
SWIDTH1 0 -1000
DWIDTH1 0 -11
BITMAP 
CC
CC
FC
78
30
30
30
ENDCHAR
STARTCHAR char5A
ENCODING 90
SWIDTH 636 0
DWIDTH 7 0
BBX 6 7 0 0
VVECTOR 3 9
SWIDTH1 0 -1000
DWIDTH1 0 -11
BITMAP 
FC
1C
38
70
E0
C0
FC
ENDCHAR
STARTCHAR char5B
ENCODING 91
SWIDTH 364 0
DWIDTH 4 0
BBX 3 9 0 -1
VVECTOR 1 9
SWIDTH1 0 -1000
DWIDTH1 0 -11
BITMAP 
E0
C0
C0
C0
C0
C0
C0
C0
E0
ENDCHAR
STARTCHAR char5C
ENCODING 92
SWIDTH 545 0
DWIDTH 6 0
BBX 5 7 0 0
VVECTOR 2 9
SWIDTH1 0 -1000
DWIDTH1 0 -11
BITMAP 
C0
C0
60
30
30
18
18
ENDCHAR
STARTCHAR char5D
ENCODING 93
SWIDTH 364 0
DWIDTH 4 0
BBX 3 9 0 -1
VVECTOR 1 9
SWIDTH1 0 -1000
DWIDTH1 0 -11
BITMAP 
E0
60
60
60
60
60
60
60
E0
ENDCHAR
STARTCHAR char5E
ENCODING 94
SWIDTH 545 0
DWIDTH 6 0
BBX 5 5 0 2
VVECTOR 2 9
SWIDTH1 0 -1000
DWIDTH1 0 -11
BITMAP 
20
20
50
50
88
ENDCHAR
STARTCHAR char5F
ENCODING 95
SWIDTH 455 0
DWIDTH 5 0
BBX 5 1 0 -1
VVECTOR 3 9
SWIDTH1 0 -1000
DWIDTH1 0 -11
BITMAP 
F8
ENDCHAR
STARTCHAR char60
ENCODING 96
SWIDTH 364 0
DWIDTH 4 0
BBX 3 2 0 5
VVECTOR 1 9
SWIDTH1 0 -1000
DWIDTH1 0 -11
BITMAP 
C0
20
ENDCHAR
STARTCHAR char61
ENCODING 97
SWIDTH 545 0
DWIDTH 6 0
BBX 5 5 0 0
VVECTOR 2 9
SWIDTH1 0 -1000
DWIDTH1 0 -11
BITMAP 
78
D8
D8
D8
78
ENDCHAR
STARTCHAR char62
ENCODING 98
SWIDTH 545 0
DWIDTH 6 0
BBX 5 7 0 0
VVECTOR 2 9
SWIDTH1 0 -1000
DWIDTH1 0 -11
BITMAP 
C0
C0
F0
D8
D8
D8
F0
ENDCHAR
STARTCHAR char63
ENCODING 99
SWIDTH 455 0
DWIDTH 5 0
BBX 4 5 0 0
VVECTOR 2 9
SWIDTH1 0 -1000
DWIDTH1 0 -11
BITMAP 
70
C0
C0
C0
70
ENDCHAR
STARTCHAR char64
ENCODING 100
SWIDTH 545 0
DWIDTH 6 0
BBX 5 7 0 0
VVECTOR 2 9
SWIDTH1 0 -1000
DWIDTH1 0 -11
BITMAP 
18
18
78
D8
D8
D8
78
ENDCHAR
STARTCHAR char65
ENCODING 101
SWIDTH 545 0
DWIDTH 6 0
BBX 5 5 0 0
VVECTOR 2 9
SWIDTH1 0 -1000
DWIDTH1 0 -11
BITMAP 
70
D8
F8
C0
78
ENDCHAR
STARTCHAR char66
ENCODING 102
SWIDTH 455 0
DWIDTH 5 0
BBX 5 7 0 0
VVECTOR 3 9
SWIDTH1 0 -1000
DWIDTH1 0 -11
BITMAP 
38
60
F0
60
60
60
60
ENDCHAR
STARTCHAR char67
ENCODING 103
SWIDTH 545 0
DWIDTH 6 0
BBX 5 7 0 -2
VVECTOR 2 9
SWIDTH1 0 -1000
DWIDTH1 0 -11
BITMAP 
78
D8
D8
D8
78
18
70
ENDCHAR
STARTCHAR char68
ENCODING 104
SWIDTH 545 0
DWIDTH 6 0
BBX 5 7 0 0
VVECTOR 2 9
SWIDTH1 0 -1000
DWIDTH1 0 -11
BITMAP 
C0
C0
F0
D8
D8
D8
D8
ENDCHAR
STARTCHAR char69
ENCODING 105
SWIDTH 273 0
DWIDTH 3 0
BBX 2 7 0 0
VVECTOR 1 9
SWIDTH1 0 -1000
DWIDTH1 0 -11
BITMAP 
C0
00
C0
C0
C0
C0
C0
ENDCHAR
STARTCHAR char6A
ENCODING 106
SWIDTH 364 0
DWIDTH 4 0
BBX 3 9 0 -2
VVECTOR 1 9
SWIDTH1 0 -1000
DWIDTH1 0 -11
BITMAP 
60
00
60
60
60
60
60
60
C0
ENDCHAR
STARTCHAR char6B
ENCODING 107
SWIDTH 545 0
DWIDTH 6 0
BBX 6 7 0 0
VVECTOR 3 9
SWIDTH1 0 -1000
DWIDTH1 0 -11
BITMAP 
C0
C0
D8
F0
F0
D8
CC
ENDCHAR
STARTCHAR char6C
ENCODING 108
SWIDTH 273 0
DWIDTH 3 0
BBX 2 7 0 0
VVECTOR 1 9
SWIDTH1 0 -1000
DWIDTH1 0 -11
BITMAP 
C0
C0
C0
C0
C0
C0
C0
ENDCHAR
STARTCHAR char6D
ENCODING 109
SWIDTH 818 0
DWIDTH 9 0
BBX 8 5 0 0
VVECTOR 4 9
SWIDTH1 0 -1000
DWIDTH1 0 -11
BITMAP 
EE
DB
DB
DB
DB
ENDCHAR
STARTCHAR char6E
ENCODING 110
SWIDTH 545 0
DWIDTH 6 0
BBX 5 5 0 0
VVECTOR 2 9
SWIDTH1 0 -1000
DWIDTH1 0 -11
BITMAP 
F0
D8
D8
D8
D8
ENDCHAR
STARTCHAR char6F
ENCODING 111
SWIDTH 545 0
DWIDTH 6 0
BBX 5 5 0 0
VVECTOR 2 9
SWIDTH1 0 -1000
DWIDTH1 0 -11
BITMAP 
70
D8
D8
D8
70
ENDCHAR
STARTCHAR char70
ENCODING 112
SWIDTH 545 0
DWIDTH 6 0
BBX 5 7 0 -2
VVECTOR 2 9
SWIDTH1 0 -1000
DWIDTH1 0 -11
BITMAP 
F0
D8
D8
D8
F0
C0
C0
ENDCHAR
STARTCHAR char71
ENCODING 113
SWIDTH 545 0
DWIDTH 6 0
BBX 5 7 0 -2
VVECTOR 2 9
SWIDTH1 0 -1000
DWIDTH1 0 -11
BITMAP 
78
D8
D8
D8
78
18
18
ENDCHAR
STARTCHAR char72
ENCODING 114
SWIDTH 455 0
DWIDTH 5 0
BBX 4 5 0 0
VVECTOR 2 9
SWIDTH1 0 -1000
DWIDTH1 0 -11
BITMAP 
D0
F0
C0
C0
C0
ENDCHAR
STARTCHAR char73
ENCODING 115
SWIDTH 455 0
DWIDTH 5 0
BBX 4 5 0 0
VVECTOR 2 9
SWIDTH1 0 -1000
DWIDTH1 0 -11
BITMAP 
70
C0
F0
30
E0
ENDCHAR
STARTCHAR char74
ENCODING 116
SWIDTH 545 0
DWIDTH 6 0
BBX 5 6 0 0
VVECTOR 2 9
SWIDTH1 0 -1000
DWIDTH1 0 -11
BITMAP 
60
F8
60
60
60
38
ENDCHAR
STARTCHAR char75
ENCODING 117
SWIDTH 545 0
DWIDTH 6 0
BBX 5 5 0 0
VVECTOR 2 9
SWIDTH1 0 -1000
DWIDTH1 0 -11
BITMAP 
D8
D8
D8
D8
78
ENDCHAR
STARTCHAR char76
ENCODING 118
SWIDTH 545 0
DWIDTH 6 0
BBX 5 5 0 0
VVECTOR 2 9
SWIDTH1 0 -1000
DWIDTH1 0 -11
BITMAP 
D8
D8
D8
70
70
ENDCHAR
STARTCHAR char77
ENCODING 119
SWIDTH 818 0
DWIDTH 9 0
BBX 8 5 0 0
VVECTOR 4 9
SWIDTH1 0 -1000
DWIDTH1 0 -11
BITMAP 
DB
DB
DB
FF
66
ENDCHAR
STARTCHAR char78
ENCODING 120
SWIDTH 545 0
DWIDTH 6 0
BBX 5 5 0 0
VVECTOR 2 9
SWIDTH1 0 -1000
DWIDTH1 0 -11
BITMAP 
D8
D8
70
D8
D8
ENDCHAR
STARTCHAR char79
ENCODING 121
SWIDTH 545 0
DWIDTH 6 0
BBX 5 7 0 -2
VVECTOR 2 9
SWIDTH1 0 -1000
DWIDTH1 0 -11
BITMAP 
D8
D8
D8
70
30
60
C0
ENDCHAR
STARTCHAR char7A
ENCODING 122
SWIDTH 455 0
DWIDTH 5 0
BBX 4 5 0 0
VVECTOR 2 9
SWIDTH1 0 -1000
DWIDTH1 0 -11
BITMAP 
F0
30
60
C0
F0
ENDCHAR
STARTCHAR char7B
ENCODING 123
SWIDTH 455 0
DWIDTH 5 0
BBX 4 9 0 -1
VVECTOR 2 9
SWIDTH1 0 -1000
DWIDTH1 0 -11
BITMAP 
30
60
60
60
C0
60
60
60
30
ENDCHAR
STARTCHAR char7C
ENCODING 124
SWIDTH 273 0
DWIDTH 3 0
BBX 2 9 0 -2
VVECTOR 1 9
SWIDTH1 0 -1000
DWIDTH1 0 -11
BITMAP 
C0
C0
C0
C0
C0
C0
C0
C0
C0
ENDCHAR
STARTCHAR char7D
ENCODING 125
SWIDTH 455 0
DWIDTH 5 0
BBX 4 9 0 -1
VVECTOR 2 9
SWIDTH1 0 -1000
DWIDTH1 0 -11
BITMAP 
C0
60
60
60
30
60
60
60
C0
ENDCHAR
STARTCHAR char7E
ENCODING 126
SWIDTH 636 0
DWIDTH 7 0
BBX 6 3 0 2
VVECTOR 3 9
SWIDTH1 0 -1000
DWIDTH1 0 -11
BITMAP 
64
B4
98
ENDCHAR
STARTCHAR char80
ENCODING 128
SWIDTH 545 0
DWIDTH 6 0
BBX 0 0 6 9
VVECTOR 9 9
SWIDTH1 0 -1000
DWIDTH1 0 -11
BITMAP 
ENDCHAR
STARTCHAR char82
ENCODING 130
SWIDTH 273 0
DWIDTH 3 0
BBX 2 3 0 -2
VVECTOR 1 9
SWIDTH1 0 -1000
DWIDTH1 0 -11
BITMAP 
C0
40
80
ENDCHAR
STARTCHAR char83
ENCODING 131
SWIDTH 818 0
DWIDTH 9 0
BBX 8 8 0 -1
VVECTOR 4 9
SWIDTH1 0 -1000
DWIDTH1 0 -11
BITMAP 
07
0C
3E
18
18
30
30
E0
ENDCHAR
STARTCHAR char84
ENCODING 132
SWIDTH 455 0
DWIDTH 5 0
BBX 4 3 0 -2
VVECTOR 2 9
SWIDTH1 0 -1000
DWIDTH1 0 -11
BITMAP 
F0
50
A0
ENDCHAR
STARTCHAR char85
ENCODING 133
SWIDTH 545 0
DWIDTH 6 0
BBX 5 1 0 0
VVECTOR 2 9
SWIDTH1 0 -1000
DWIDTH1 0 -11
BITMAP 
A8
ENDCHAR
STARTCHAR char86
ENCODING 134
SWIDTH 455 0
DWIDTH 5 0
BBX 4 9 0 -2
VVECTOR 2 9
SWIDTH1 0 -1000
DWIDTH1 0 -11
BITMAP 
60
60
F0
60
60
60
60
60
60
ENDCHAR
STARTCHAR char87
ENCODING 135
SWIDTH 455 0
DWIDTH 5 0
BBX 4 9 0 -2
VVECTOR 2 9
SWIDTH1 0 -1000
DWIDTH1 0 -11
BITMAP 
60
60
F0
60
60
60
F0
60
60
ENDCHAR
STARTCHAR char88
ENCODING 136
SWIDTH 364 0
DWIDTH 4 0
BBX 3 2 0 5
VVECTOR 1 9
SWIDTH1 0 -1000
DWIDTH1 0 -11
BITMAP 
40
A0
ENDCHAR
STARTCHAR char89
ENCODING 137
SWIDTH 1545 0
DWIDTH 17 0
BBX 16 7 0 0
VVECTOR 8 9
SWIDTH1 0 -1000
DWIDTH1 0 -11
BITMAP 
7080
D980
DB00
76EE
0DBB
19BB
30EE
ENDCHAR
STARTCHAR char8A
ENCODING 138
SWIDTH 545 0
DWIDTH 6 0
BBX 5 9 0 0
VVECTOR 2 9
SWIDTH1 0 -1000
DWIDTH1 0 -11
BITMAP 
50
20
00
78
E0
70
38
18
F0
ENDCHAR
STARTCHAR char8B
ENCODING 139
SWIDTH 455 0
DWIDTH 5 0
BBX 4 5 0 1
VVECTOR 2 9
SWIDTH1 0 -1000
DWIDTH1 0 -11
BITMAP 
30
60
C0
60
30
ENDCHAR
STARTCHAR char8C
ENCODING 140
SWIDTH 909 0
DWIDTH 10 0
BBX 9 7 0 0
VVECTOR 4 9
SWIDTH1 0 -1000
DWIDTH1 0 -11
BITMAP 
3F80
6600
C600
C780
C600
6600
3F80
ENDCHAR
STARTCHAR char8D
ENCODING 141
SWIDTH 909 0
DWIDTH 10 0
BBX 9 9 0 -1
VVECTOR 4 9
SWIDTH1 0 -1000
DWIDTH1 0 -11
BITMAP 
0800
1400
2200
4100
8080
4100
2200
1400
0800
ENDCHAR
STARTCHAR char8E
ENCODING 142
SWIDTH 909 0
DWIDTH 10 0
BBX 9 10 0 -1
VVECTOR 4 9
SWIDTH1 0 -1000
DWIDTH1 0 -11
BITMAP 
1C00
3E00
3E00
5D00
FF80
FF80
FF80
6B00
1C00
3E00
ENDCHAR
STARTCHAR char8F
ENCODING 143
SWIDTH 909 0
DWIDTH 10 0
BBX 9 9 -1 -1
VVECTOR 3 9
SWIDTH1 0 -1000
DWIDTH1 0 -11
BITMAP 
7700
9C80
8880
8080
8080
4100
2200
1400
0800
ENDCHAR
STARTCHAR char90
ENCODING 144
SWIDTH 909 0
DWIDTH 10 0
BBX 9 10 -1 -1
VVECTOR 3 9
SWIDTH1 0 -1000
DWIDTH1 0 -11
BITMAP 
0800
1C00
3E00
7F00
FF80
FF80
FF80
6B00
1C00
3E00
ENDCHAR
STARTCHAR char91
ENCODING 145
SWIDTH 273 0
DWIDTH 3 0
BBX 2 3 0 5
VVECTOR 1 9
SWIDTH1 0 -1000
DWIDTH1 0 -11
BITMAP 
40
80
C0
ENDCHAR
STARTCHAR char92
ENCODING 146
SWIDTH 273 0
DWIDTH 3 0
BBX 2 3 0 5
VVECTOR 1 9
SWIDTH1 0 -1000
DWIDTH1 0 -11
BITMAP 
C0
40
80
ENDCHAR
STARTCHAR char93
ENCODING 147
SWIDTH 455 0
DWIDTH 5 0
BBX 4 3 0 5
VVECTOR 2 9
SWIDTH1 0 -1000
DWIDTH1 0 -11
BITMAP 
50
A0
F0
ENDCHAR
STARTCHAR char94
ENCODING 148
SWIDTH 455 0
DWIDTH 5 0
BBX 4 3 0 5
VVECTOR 2 9
SWIDTH1 0 -1000
DWIDTH1 0 -11
BITMAP 
F0
50
A0
ENDCHAR
STARTCHAR char95
ENCODING 149
SWIDTH 364 0
DWIDTH 4 0
BBX 3 3 0 2
VVECTOR 1 9
SWIDTH1 0 -1000
DWIDTH1 0 -11
BITMAP 
E0
E0
E0
ENDCHAR
STARTCHAR char96
ENCODING 150
SWIDTH 364 0
DWIDTH 4 0
BBX 4 1 0 3
VVECTOR 2 9
SWIDTH1 0 -1000
DWIDTH1 0 -11
BITMAP 
F0
ENDCHAR
STARTCHAR char97
ENCODING 151
SWIDTH 545 0
DWIDTH 6 0
BBX 6 1 0 3
VVECTOR 3 9
SWIDTH1 0 -1000
DWIDTH1 0 -11
BITMAP 
FC
ENDCHAR
STARTCHAR char98
ENCODING 152
SWIDTH 636 0
DWIDTH 7 0
BBX 6 3 0 3
VVECTOR 3 9
SWIDTH1 0 -1000
DWIDTH1 0 -11
BITMAP 
64
B4
98
ENDCHAR
STARTCHAR char99
ENCODING 153
SWIDTH 909 0
DWIDTH 10 0
BBX 9 3 0 4
VVECTOR 4 9
SWIDTH1 0 -1000
DWIDTH1 0 -11
BITMAP 
E880
4D80
4A80
ENDCHAR
STARTCHAR char9A
ENCODING 154
SWIDTH 455 0
DWIDTH 5 0
BBX 4 8 0 0
VVECTOR 2 9
SWIDTH1 0 -1000
DWIDTH1 0 -11
BITMAP 
50
20
00
70
C0
F0
30
E0
ENDCHAR
STARTCHAR char9B
ENCODING 155
SWIDTH 455 0
DWIDTH 5 0
BBX 4 5 0 1
VVECTOR 2 9
SWIDTH1 0 -1000
DWIDTH1 0 -11
BITMAP 
C0
60
30
60
C0
ENDCHAR
STARTCHAR char9C
ENCODING 156
SWIDTH 909 0
DWIDTH 10 0
BBX 9 5 0 0
VVECTOR 4 9
SWIDTH1 0 -1000
DWIDTH1 0 -11
BITMAP 
7700
DD80
DF80
DC00
7780
ENDCHAR
STARTCHAR char9D
ENCODING 157
SWIDTH 909 0
DWIDTH 10 0
BBX 9 8 -1 -1
VVECTOR 3 9
SWIDTH1 0 -1000
DWIDTH1 0 -11
BITMAP 
0180
0300
0600
0C00
1800
F000
E000
E000
ENDCHAR
STARTCHAR char9E
ENCODING 158
SWIDTH 727 0
DWIDTH 8 0
BBX 7 8 0 -1
VVECTOR 3 9
SWIDTH1 0 -1000
DWIDTH1 0 -11
BITMAP 
38
6C
6C
6C
6C
38
EC
C6
ENDCHAR
STARTCHAR char9F
ENCODING 159
SWIDTH 636 0
DWIDTH 7 0
BBX 6 8 0 0
VVECTOR 3 9
SWIDTH1 0 -1000
DWIDTH1 0 -11
BITMAP 
48
00
CC
CC
78
30
30
30
ENDCHAR
STARTCHAR charA0
ENCODING 160
SWIDTH 182 0
DWIDTH 2 0
BBX 0 0 2 9
VVECTOR 3 9
SWIDTH1 0 -1000
DWIDTH1 0 -11
BITMAP 
ENDCHAR
STARTCHAR charA1
ENCODING 161
SWIDTH 273 0
DWIDTH 3 0
BBX 2 7 0 -2
VVECTOR 1 9
SWIDTH1 0 -1000
DWIDTH1 0 -11
BITMAP 
C0
00
C0
C0
C0
C0
C0
ENDCHAR
STARTCHAR charA2
ENCODING 162
SWIDTH 545 0
DWIDTH 6 0
BBX 5 7 0 -1
VVECTOR 2 9
SWIDTH1 0 -1000
DWIDTH1 0 -11
BITMAP 
10
78
D0
D0
D0
78
10
ENDCHAR
STARTCHAR charA3
ENCODING 163
SWIDTH 636 0
DWIDTH 7 0
BBX 6 7 0 0
VVECTOR 3 9
SWIDTH1 0 -1000
DWIDTH1 0 -11
BITMAP 
38
60
60
F8
60
60
FC
ENDCHAR
STARTCHAR charA4
ENCODING 164
SWIDTH 727 0
DWIDTH 8 0
BBX 7 7 0 0
VVECTOR 3 9
SWIDTH1 0 -1000
DWIDTH1 0 -11
BITMAP 
BA
7C
C6
C6
C6
7C
BA
ENDCHAR
STARTCHAR charA5
ENCODING 165
SWIDTH 636 0
DWIDTH 7 0
BBX 6 7 0 0
VVECTOR 3 9
SWIDTH1 0 -1000
DWIDTH1 0 -11
BITMAP 
C4
68
FC
30
FC
30
30
ENDCHAR
STARTCHAR charA6
ENCODING 166
SWIDTH 273 0
DWIDTH 3 0
BBX 2 9 0 -2
VVECTOR 1 9
SWIDTH1 0 -1000
DWIDTH1 0 -11
BITMAP 
C0
C0
C0
C0
00
C0
C0
C0
C0
ENDCHAR
STARTCHAR charA7
ENCODING 167
SWIDTH 545 0
DWIDTH 6 0
BBX 5 9 0 -1
VVECTOR 2 9
SWIDTH1 0 -1000
DWIDTH1 0 -11
BITMAP 
70
D8
60
F0
D8
78
30
D8
70
ENDCHAR
STARTCHAR charA8
ENCODING 168
SWIDTH 364 0
DWIDTH 4 0
BBX 3 1 0 5
VVECTOR 1 9
SWIDTH1 0 -1000
DWIDTH1 0 -11
BITMAP 
A0
ENDCHAR
STARTCHAR charA9
ENCODING 169
SWIDTH 727 0
DWIDTH 8 0
BBX 7 7 0 -1
VVECTOR 3 9
SWIDTH1 0 -1000
DWIDTH1 0 -11
BITMAP 
38
44
BA
A2
BA
44
38
ENDCHAR
STARTCHAR charAA
ENCODING 170
SWIDTH 545 0
DWIDTH 6 0
BBX 5 3 0 4
VVECTOR 2 9
SWIDTH1 0 -1000
DWIDTH1 0 -11
BITMAP 
78
D8
78
ENDCHAR
STARTCHAR charAB
ENCODING 171
SWIDTH 727 0
DWIDTH 8 0
BBX 7 5 0 0
VVECTOR 3 9
SWIDTH1 0 -1000
DWIDTH1 0 -11
BITMAP 
36
6C
D8
6C
36
ENDCHAR
STARTCHAR charAC
ENCODING 172
SWIDTH 545 0
DWIDTH 6 0
BBX 5 3 0 1
VVECTOR 2 9
SWIDTH1 0 -1000
DWIDTH1 0 -11
BITMAP 
F8
08
08
ENDCHAR
STARTCHAR charAD
ENCODING 173
SWIDTH 455 0
DWIDTH 5 0
BBX 4 1 0 3
VVECTOR 2 9
SWIDTH1 0 -1000
DWIDTH1 0 -11
BITMAP 
F0
ENDCHAR
STARTCHAR charAE
ENCODING 174
SWIDTH 727 0
DWIDTH 8 0
BBX 7 7 0 -1
VVECTOR 3 9
SWIDTH1 0 -1000
DWIDTH1 0 -11
BITMAP 
38
44
BA
B2
AA
44
38
ENDCHAR
STARTCHAR charAF
ENCODING 175
SWIDTH 545 0
DWIDTH 6 0
BBX 5 1 0 7
VVECTOR 2 9
SWIDTH1 0 -1000
DWIDTH1 0 -11
BITMAP 
F8
ENDCHAR
STARTCHAR charB0
ENCODING 176
SWIDTH 455 0
DWIDTH 5 0
BBX 4 4 0 4
VVECTOR 2 9
SWIDTH1 0 -1000
DWIDTH1 0 -11
BITMAP 
60
90
90
60
ENDCHAR
STARTCHAR charB1
ENCODING 177
SWIDTH 545 0
DWIDTH 6 0
BBX 5 6 0 1
VVECTOR 2 9
SWIDTH1 0 -1000
DWIDTH1 0 -11
BITMAP 
20
20
F8
20
20
F8
ENDCHAR
STARTCHAR charB2
ENCODING 178
SWIDTH 364 0
DWIDTH 4 0
BBX 3 4 0 3
VVECTOR 1 9
SWIDTH1 0 -1000
DWIDTH1 0 -11
BITMAP 
E0
20
40
E0
ENDCHAR
STARTCHAR charB3
ENCODING 179
SWIDTH 364 0
DWIDTH 4 0
BBX 3 4 0 3
VVECTOR 1 9
SWIDTH1 0 -1000
DWIDTH1 0 -11
BITMAP 
E0
40
20
E0
ENDCHAR
STARTCHAR charB4
ENCODING 180
SWIDTH 364 0
DWIDTH 4 0
BBX 3 2 0 5
VVECTOR 1 9
SWIDTH1 0 -1000
DWIDTH1 0 -11
BITMAP 
60
80
ENDCHAR
STARTCHAR charB5
ENCODING 181
SWIDTH 545 0
DWIDTH 6 0
BBX 5 7 0 -2
VVECTOR 2 9
SWIDTH1 0 -1000
DWIDTH1 0 -11
BITMAP 
D8
D8
D8
D8
F8
C0
C0
ENDCHAR
STARTCHAR charB6
ENCODING 182
SWIDTH 636 0
DWIDTH 7 0
BBX 6 7 0 0
VVECTOR 3 9
SWIDTH1 0 -1000
DWIDTH1 0 -11
BITMAP 
7C
EC
EC
6C
2C
2C
2C
ENDCHAR
STARTCHAR charB7
ENCODING 183
SWIDTH 182 0
DWIDTH 2 0
BBX 1 1 0 3
VVECTOR 0 9
SWIDTH1 0 -1000
DWIDTH1 0 -11
BITMAP 
80
ENDCHAR
STARTCHAR charB8
ENCODING 184
SWIDTH 364 0
DWIDTH 4 0
BBX 3 3 0 -2
VVECTOR 1 9
SWIDTH1 0 -1000
DWIDTH1 0 -11
BITMAP 
40
20
C0
ENDCHAR
STARTCHAR charB9
ENCODING 185
SWIDTH 182 0
DWIDTH 2 0
BBX 1 3 0 4
VVECTOR 0 9
SWIDTH1 0 -1000
DWIDTH1 0 -11
BITMAP 
80
80
80
ENDCHAR
STARTCHAR charBA
ENCODING 186
SWIDTH 545 0
DWIDTH 6 0
BBX 5 5 0 2
VVECTOR 2 9
SWIDTH1 0 -1000
DWIDTH1 0 -11
BITMAP 
70
D8
70
00
F8
ENDCHAR
STARTCHAR charBB
ENCODING 187
SWIDTH 727 0
DWIDTH 8 0
BBX 7 5 0 0
VVECTOR 3 9
SWIDTH1 0 -1000
DWIDTH1 0 -11
BITMAP 
D8
6C
36
6C
D8
ENDCHAR
STARTCHAR charBC
ENCODING 188
SWIDTH 818 0
DWIDTH 9 0
BBX 8 8 0 0
VVECTOR 4 9
SWIDTH1 0 -1000
DWIDTH1 0 -11
BITMAP 
C0
C6
CC
D8
32
66
CF
06
ENDCHAR
STARTCHAR charBD
ENCODING 189
SWIDTH 818 0
DWIDTH 9 0
BBX 8 8 0 0
VVECTOR 4 9
SWIDTH1 0 -1000
DWIDTH1 0 -11
BITMAP 
C0
C6
CC
D8
37
63
C6
07
ENDCHAR
STARTCHAR charBE
ENCODING 190
SWIDTH 818 0
DWIDTH 9 0
BBX 8 8 0 0
VVECTOR 4 9
SWIDTH1 0 -1000
DWIDTH1 0 -11
BITMAP 
E0
66
6C
F8
32
66
CF
06
ENDCHAR
STARTCHAR charBF
ENCODING 191
SWIDTH 545 0
DWIDTH 6 0
BBX 5 7 0 0
VVECTOR 2 9
SWIDTH1 0 -1000
DWIDTH1 0 -11
BITMAP 
30
00
30
30
60
C0
78
ENDCHAR
STARTCHAR charC0
ENCODING 192
SWIDTH 636 0
DWIDTH 7 0
BBX 6 9 0 0
VVECTOR 3 9
SWIDTH1 0 -1000
DWIDTH1 0 -11
BITMAP 
20
10
00
78
CC
CC
FC
CC
CC
ENDCHAR
STARTCHAR charC1
ENCODING 193
SWIDTH 636 0
DWIDTH 7 0
BBX 6 9 0 0
VVECTOR 3 9
SWIDTH1 0 -1000
DWIDTH1 0 -11
BITMAP 
10
20
00
78
CC
CC
FC
CC
CC
ENDCHAR
STARTCHAR charC2
ENCODING 194
SWIDTH 636 0
DWIDTH 7 0
BBX 6 9 0 0
VVECTOR 3 9
SWIDTH1 0 -1000
DWIDTH1 0 -11
BITMAP 
10
28
00
78
CC
CC
FC
CC
CC
ENDCHAR
STARTCHAR charC3
ENCODING 195
SWIDTH 636 0
DWIDTH 7 0
BBX 6 9 0 0
VVECTOR 3 9
SWIDTH1 0 -1000
DWIDTH1 0 -11
BITMAP 
68
B0
00
78
CC
CC
FC
CC
CC
ENDCHAR
STARTCHAR charC4
ENCODING 196
SWIDTH 636 0
DWIDTH 7 0
BBX 6 8 0 0
VVECTOR 3 9
SWIDTH1 0 -1000
DWIDTH1 0 -11
BITMAP 
28
00
78
CC
CC
FC
CC
CC
ENDCHAR
STARTCHAR charC5
ENCODING 197
SWIDTH 636 0
DWIDTH 7 0
BBX 6 9 0 0
VVECTOR 3 9
SWIDTH1 0 -1000
DWIDTH1 0 -11
BITMAP 
30
48
30
78
CC
CC
FC
CC
CC
ENDCHAR
STARTCHAR charC6
ENCODING 198
SWIDTH 818 0
DWIDTH 9 0
BBX 8 7 0 0
VVECTOR 4 9
SWIDTH1 0 -1000
DWIDTH1 0 -11
BITMAP 
7F
CC
CC
FF
CC
CC
CF
ENDCHAR
STARTCHAR charC7
ENCODING 199
SWIDTH 545 0
DWIDTH 6 0
BBX 5 9 0 -2
VVECTOR 2 9
SWIDTH1 0 -1000
DWIDTH1 0 -11
BITMAP 
38
60
C0
C0
C0
60
38
10
20
ENDCHAR
STARTCHAR charC8
ENCODING 200
SWIDTH 455 0
DWIDTH 5 0
BBX 4 9 0 0
VVECTOR 2 9
SWIDTH1 0 -1000
DWIDTH1 0 -11
BITMAP 
40
20
00
F0
C0
F0
C0
C0
F0
ENDCHAR
STARTCHAR charC9
ENCODING 201
SWIDTH 455 0
DWIDTH 5 0
BBX 4 9 0 0
VVECTOR 2 9
SWIDTH1 0 -1000
DWIDTH1 0 -11
BITMAP 
20
40
00
F0
C0
F0
C0
C0
F0
ENDCHAR
STARTCHAR charCA
ENCODING 202
SWIDTH 455 0
DWIDTH 5 0
BBX 4 9 0 0
VVECTOR 2 9
SWIDTH1 0 -1000
DWIDTH1 0 -11
BITMAP 
20
50
00
F0
C0
F0
C0
C0
F0
ENDCHAR
STARTCHAR charCB
ENCODING 203
SWIDTH 455 0
DWIDTH 5 0
BBX 4 8 0 0
VVECTOR 2 9
SWIDTH1 0 -1000
DWIDTH1 0 -11
BITMAP 
50
00
F0
C0
F0
C0
C0
F0
ENDCHAR
STARTCHAR charCC
ENCODING 204
SWIDTH 273 0
DWIDTH 3 0
BBX 2 9 0 0
VVECTOR 1 9
SWIDTH1 0 -1000
DWIDTH1 0 -11
BITMAP 
80
40
00
C0
C0
C0
C0
C0
C0
ENDCHAR
STARTCHAR charCD
ENCODING 205
SWIDTH 273 0
DWIDTH 3 0
BBX 2 9 0 0
VVECTOR 1 9
SWIDTH1 0 -1000
DWIDTH1 0 -11
BITMAP 
40
80
00
C0
C0
C0
C0
C0
C0
ENDCHAR
STARTCHAR charCE
ENCODING 206
SWIDTH 273 0
DWIDTH 3 0
BBX 3 9 0 0
VVECTOR 2 9
SWIDTH1 0 -1000
DWIDTH1 0 -11
BITMAP 
40
A0
00
C0
C0
C0
C0
C0
C0
ENDCHAR
STARTCHAR charCF
ENCODING 207
SWIDTH 273 0
DWIDTH 3 0
BBX 3 8 0 0
VVECTOR 2 9
SWIDTH1 0 -1000
DWIDTH1 0 -11
BITMAP 
A0
00
C0
C0
C0
C0
C0
C0
ENDCHAR
STARTCHAR charD0
ENCODING 208
SWIDTH 727 0
DWIDTH 8 0
BBX 7 7 0 0
VVECTOR 3 9
SWIDTH1 0 -1000
DWIDTH1 0 -11
BITMAP 
78
6C
66
F6
66
6C
78
ENDCHAR
STARTCHAR charD1
ENCODING 209
SWIDTH 636 0
DWIDTH 7 0
BBX 6 9 0 0
VVECTOR 3 9
SWIDTH1 0 -1000
DWIDTH1 0 -11
BITMAP 
68
B0
00
C4
E4
F4
BC
9C
8C
ENDCHAR
STARTCHAR charD2
ENCODING 210
SWIDTH 727 0
DWIDTH 8 0
BBX 7 9 0 0
VVECTOR 3 9
SWIDTH1 0 -1000
DWIDTH1 0 -11
BITMAP 
10
08
00
38
6C
C6
C6
6C
38
ENDCHAR
STARTCHAR charD3
ENCODING 211
SWIDTH 727 0
DWIDTH 8 0
BBX 7 9 0 0
VVECTOR 3 9
SWIDTH1 0 -1000
DWIDTH1 0 -11
BITMAP 
08
10
00
38
6C
C6
C6
6C
38
ENDCHAR
STARTCHAR charD4
ENCODING 212
SWIDTH 727 0
DWIDTH 8 0
BBX 7 9 0 0
VVECTOR 3 9
SWIDTH1 0 -1000
DWIDTH1 0 -11
BITMAP 
10
28
00
38
6C
C6
C6
6C
38
ENDCHAR
STARTCHAR charD5
ENCODING 213
SWIDTH 727 0
DWIDTH 8 0
BBX 7 9 0 0
VVECTOR 3 9
SWIDTH1 0 -1000
DWIDTH1 0 -11
BITMAP 
34
58
00
38
6C
C6
C6
6C
38
ENDCHAR
STARTCHAR charD6
ENCODING 214
SWIDTH 727 0
DWIDTH 8 0
BBX 7 8 0 0
VVECTOR 3 9
SWIDTH1 0 -1000
DWIDTH1 0 -11
BITMAP 
28
00
38
6C
C6
C6
6C
38
ENDCHAR
STARTCHAR charD7
ENCODING 215
SWIDTH 545 0
DWIDTH 6 0
BBX 5 4 0 1
VVECTOR 2 9
SWIDTH1 0 -1000
DWIDTH1 0 -11
BITMAP 
D8
70
70
D8
ENDCHAR
STARTCHAR charD8
ENCODING 216
SWIDTH 727 0
DWIDTH 8 0
BBX 7 7 0 0
VVECTOR 3 9
SWIDTH1 0 -1000
DWIDTH1 0 -11
BITMAP 
3A
6C
CE
D6
E6
6C
B8
ENDCHAR
STARTCHAR charD9
ENCODING 217
SWIDTH 636 0
DWIDTH 7 0
BBX 6 9 0 0
VVECTOR 3 9
SWIDTH1 0 -1000
DWIDTH1 0 -11
BITMAP 
10
08
00
C4
C4
C4
C4
EC
78
ENDCHAR
STARTCHAR charDA
ENCODING 218
SWIDTH 636 0
DWIDTH 7 0
BBX 6 9 0 0
VVECTOR 3 9
SWIDTH1 0 -1000
DWIDTH1 0 -11
BITMAP 
08
10
00
C4
C4
C4
C4
EC
78
ENDCHAR
STARTCHAR charDB
ENCODING 219
SWIDTH 636 0
DWIDTH 7 0
BBX 6 9 0 0
VVECTOR 3 9
SWIDTH1 0 -1000
DWIDTH1 0 -11
BITMAP 
10
28
00
C4
C4
C4
C4
EC
7C
ENDCHAR
STARTCHAR charDC
ENCODING 220
SWIDTH 636 0
DWIDTH 7 0
BBX 6 8 0 0
VVECTOR 3 9
SWIDTH1 0 -1000
DWIDTH1 0 -11
BITMAP 
28
00
C4
C4
C4
C4
EC
78
ENDCHAR
STARTCHAR charDD
ENCODING 221
SWIDTH 636 0
DWIDTH 7 0
BBX 6 9 0 0
VVECTOR 3 9
SWIDTH1 0 -1000
DWIDTH1 0 -11
BITMAP 
10
20
00
CC
CC
78
30
30
30
ENDCHAR
STARTCHAR charDE
ENCODING 222
SWIDTH 636 0
DWIDTH 7 0
BBX 6 7 0 0
VVECTOR 3 9
SWIDTH1 0 -1000
DWIDTH1 0 -11
BITMAP 
C0
F8
CC
CC
CC
F8
C0
ENDCHAR
STARTCHAR charDF
ENCODING 223
SWIDTH 727 0
DWIDTH 8 0
BBX 7 7 0 0
VVECTOR 3 9
SWIDTH1 0 -1000
DWIDTH1 0 -11
BITMAP 
78
CC
C8
DC
CE
C6
DC
ENDCHAR
STARTCHAR charE0
ENCODING 224
SWIDTH 545 0
DWIDTH 6 0
BBX 5 8 0 0
VVECTOR 2 9
SWIDTH1 0 -1000
DWIDTH1 0 -11
BITMAP 
20
10
00
78
D8
D8
D8
78
ENDCHAR
STARTCHAR charE1
ENCODING 225
SWIDTH 545 0
DWIDTH 6 0
BBX 5 8 0 0
VVECTOR 2 9
SWIDTH1 0 -1000
DWIDTH1 0 -11
BITMAP 
10
20
00
78
D8
D8
D8
78
ENDCHAR
STARTCHAR charE2
ENCODING 226
SWIDTH 545 0
DWIDTH 6 0
BBX 5 8 0 0
VVECTOR 2 9
SWIDTH1 0 -1000
DWIDTH1 0 -11
BITMAP 
10
28
00
78
D8
D8
D8
78
ENDCHAR
STARTCHAR charE3
ENCODING 227
SWIDTH 545 0
DWIDTH 6 0
BBX 5 8 0 0
VVECTOR 2 9
SWIDTH1 0 -1000
DWIDTH1 0 -11
BITMAP 
68
B0
00
78
D8
D8
D8
78
ENDCHAR
STARTCHAR charE4
ENCODING 228
SWIDTH 545 0
DWIDTH 6 0
BBX 5 7 0 0
VVECTOR 2 9
SWIDTH1 0 -1000
DWIDTH1 0 -11
BITMAP 
28
00
78
D8
D8
D8
78
ENDCHAR
STARTCHAR charE5
ENCODING 229
SWIDTH 545 0
DWIDTH 6 0
BBX 5 9 0 0
VVECTOR 2 9
SWIDTH1 0 -1000
DWIDTH1 0 -11
BITMAP 
30
48
30
00
78
D8
D8
D8
78
ENDCHAR
STARTCHAR charE6
ENCODING 230
SWIDTH 818 0
DWIDTH 9 0
BBX 8 5 0 0
VVECTOR 4 9
SWIDTH1 0 -1000
DWIDTH1 0 -11
BITMAP 
76
1B
7F
D8
7F
ENDCHAR
STARTCHAR charE7
ENCODING 231
SWIDTH 455 0
DWIDTH 5 0
BBX 4 7 0 -2
VVECTOR 2 9
SWIDTH1 0 -1000
DWIDTH1 0 -11
BITMAP 
70
C0
C0
C0
70
20
40
ENDCHAR
STARTCHAR charE8
ENCODING 232
SWIDTH 545 0
DWIDTH 6 0
BBX 5 8 0 0
VVECTOR 2 9
SWIDTH1 0 -1000
DWIDTH1 0 -11
BITMAP 
20
10
00
70
D8
F8
C0
78
ENDCHAR
STARTCHAR charE9
ENCODING 233
SWIDTH 545 0
DWIDTH 6 0
BBX 5 8 0 0
VVECTOR 2 9
SWIDTH1 0 -1000
DWIDTH1 0 -11
BITMAP 
10
20
00
70
D8
F8
C0
78
ENDCHAR
STARTCHAR charEA
ENCODING 234
SWIDTH 545 0
DWIDTH 6 0
BBX 5 8 0 0
VVECTOR 2 9
SWIDTH1 0 -1000
DWIDTH1 0 -11
BITMAP 
20
50
00
70
D8
F8
C0
78
ENDCHAR
STARTCHAR charEB
ENCODING 235
SWIDTH 545 0
DWIDTH 6 0
BBX 5 7 0 0
VVECTOR 2 9
SWIDTH1 0 -1000
DWIDTH1 0 -11
BITMAP 
50
00
70
D8
F8
C0
78
ENDCHAR
STARTCHAR charEC
ENCODING 236
SWIDTH 273 0
DWIDTH 3 0
BBX 2 8 0 0
VVECTOR 1 9
SWIDTH1 0 -1000
DWIDTH1 0 -11
BITMAP 
80
40
00
C0
C0
C0
C0
C0
ENDCHAR
STARTCHAR charED
ENCODING 237
SWIDTH 273 0
DWIDTH 3 0
BBX 2 8 0 0
VVECTOR 1 9
SWIDTH1 0 -1000
DWIDTH1 0 -11
BITMAP 
40
80
00
C0
C0
C0
C0
C0
ENDCHAR
STARTCHAR charEE
ENCODING 238
SWIDTH 273 0
DWIDTH 3 0
BBX 3 8 0 0
VVECTOR 2 9
SWIDTH1 0 -1000
DWIDTH1 0 -11
BITMAP 
40
A0
00
C0
C0
C0
C0
C0
ENDCHAR
STARTCHAR charEF
ENCODING 239
SWIDTH 273 0
DWIDTH 3 0
BBX 3 7 0 0
VVECTOR 2 9
SWIDTH1 0 -1000
DWIDTH1 0 -11
BITMAP 
A0
00
C0
C0
C0
C0
C0
ENDCHAR
STARTCHAR charF0
ENCODING 240
SWIDTH 545 0
DWIDTH 6 0
BBX 5 7 0 0
VVECTOR 2 9
SWIDTH1 0 -1000
DWIDTH1 0 -11
BITMAP 
E0
E0
30
70
D8
D8
70
ENDCHAR
STARTCHAR charF1
ENCODING 241
SWIDTH 545 0
DWIDTH 6 0
BBX 5 8 0 0
VVECTOR 2 9
SWIDTH1 0 -1000
DWIDTH1 0 -11
BITMAP 
68
B0
00
F0
D8
D8
D8
D8
ENDCHAR
STARTCHAR charF2
ENCODING 242
SWIDTH 545 0
DWIDTH 6 0
BBX 5 8 0 0
VVECTOR 2 9
SWIDTH1 0 -1000
DWIDTH1 0 -11
BITMAP 
20
10
00
70
D8
D8
D8
70
ENDCHAR
STARTCHAR charF3
ENCODING 243
SWIDTH 545 0
DWIDTH 6 0
BBX 5 8 0 0
VVECTOR 2 9
SWIDTH1 0 -1000
DWIDTH1 0 -11
BITMAP 
10
20
00
70
D8
D8
D8
70
ENDCHAR
STARTCHAR charF4
ENCODING 244
SWIDTH 545 0
DWIDTH 6 0
BBX 5 8 0 0
VVECTOR 2 9
SWIDTH1 0 -1000
DWIDTH1 0 -11
BITMAP 
20
50
00
70
D8
D8
D8
70
ENDCHAR
STARTCHAR charF5
ENCODING 245
SWIDTH 545 0
DWIDTH 6 0
BBX 5 8 0 0
VVECTOR 2 9
SWIDTH1 0 -1000
DWIDTH1 0 -11
BITMAP 
68
B0
00
70
D8
D8
D8
70
ENDCHAR
STARTCHAR charF6
ENCODING 246
SWIDTH 545 0
DWIDTH 6 0
BBX 5 7 0 0
VVECTOR 2 9
SWIDTH1 0 -1000
DWIDTH1 0 -11
BITMAP 
50
00
70
D8
D8
D8
70
ENDCHAR
STARTCHAR charF7
ENCODING 247
SWIDTH 636 0
DWIDTH 7 0
BBX 6 5 0 1
VVECTOR 3 9
SWIDTH1 0 -1000
DWIDTH1 0 -11
BITMAP 
30
00
FC
00
30
ENDCHAR
STARTCHAR charF8
ENCODING 248
SWIDTH 727 0
DWIDTH 8 0
BBX 7 5 0 0
VVECTOR 3 9
SWIDTH1 0 -1000
DWIDTH1 0 -11
BITMAP 
3A
6C
7C
6C
B8
ENDCHAR
STARTCHAR charF9
ENCODING 249
SWIDTH 545 0
DWIDTH 6 0
BBX 5 8 0 0
VVECTOR 2 9
SWIDTH1 0 -1000
DWIDTH1 0 -11
BITMAP 
20
10
00
D8
D8
D8
D8
78
ENDCHAR
STARTCHAR charFA
ENCODING 250
SWIDTH 545 0
DWIDTH 6 0
BBX 5 8 0 0
VVECTOR 2 9
SWIDTH1 0 -1000
DWIDTH1 0 -11
BITMAP 
10
20
00
D8
D8
D8
D8
78
ENDCHAR
STARTCHAR charFB
ENCODING 251
SWIDTH 545 0
DWIDTH 6 0
BBX 5 8 0 0
VVECTOR 2 9
SWIDTH1 0 -1000
DWIDTH1 0 -11
BITMAP 
20
50
00
D8
D8
D8
D8
78
ENDCHAR
STARTCHAR charFC
ENCODING 252
SWIDTH 545 0
DWIDTH 6 0
BBX 5 7 0 0
VVECTOR 2 9
SWIDTH1 0 -1000
DWIDTH1 0 -11
BITMAP 
50
00
D8
D8
D8
D8
78
ENDCHAR
STARTCHAR charFD
ENCODING 253
SWIDTH 545 0
DWIDTH 6 0
BBX 5 10 0 -2
VVECTOR 2 9
SWIDTH1 0 -1000
DWIDTH1 0 -11
BITMAP 
10
20
00
D8
D8
D8
70
30
60
C0
ENDCHAR
STARTCHAR charFE
ENCODING 254
SWIDTH 545 0
DWIDTH 6 0
BBX 5 8 0 -2
VVECTOR 2 9
SWIDTH1 0 -1000
DWIDTH1 0 -11
BITMAP 
C0
F0
D8
D8
D8
F0
C0
C0
ENDCHAR
STARTCHAR charFF
ENCODING 255
SWIDTH 545 0
DWIDTH 6 0
BBX 5 9 0 -2
VVECTOR 2 9
SWIDTH1 0 -1000
DWIDTH1 0 -11
BITMAP 
50
00
D8
D8
D8
70
30
60
C0
ENDCHAR
STARTCHAR missing
ENCODING -1
SWIDTH 455 0
DWIDTH 5 0
BBX 5 8 0 0
VVECTOR 3 9
SWIDTH1 0 -1000
DWIDTH1 0 -11
BITMAP 
F8
88
88
88
88
88
88
F8
ENDCHAR
ENDFONT
